<svg width="22" height="22" viewBox="0 0 22 22" fill="none" xmlns="http://www.w3.org/2000/svg">
<path fill-rule="evenodd" clip-rule="evenodd" d="M8.09998 14.0556C7.39939 14.486 7.09533 15.007 7.09533 15.5203C7.09533 15.8966 7.21468 16.102 7.34942 16.2221C7.49679 16.3534 7.76089 16.4688 8.18876 16.4688H13.8121C14.24 16.4688 14.5041 16.3534 14.6514 16.2221C14.7862 16.102 14.9055 15.8966 14.9055 15.5203C14.9055 15.007 14.6015 14.486 13.9009 14.0556C13.1991 13.6244 12.1764 13.3447 11.0004 13.3447C9.82442 13.3447 8.80174 13.6244 8.09998 14.0556ZM7.28229 12.7247C8.27943 12.1121 9.59981 11.7826 11.0004 11.7826C12.4011 11.7826 13.7214 12.1121 14.7186 12.7247C15.7169 13.338 16.4676 14.2953 16.4676 15.5203C16.4676 16.2642 16.212 16.9236 15.6907 17.3882C15.182 17.8415 14.5089 18.0308 13.8121 18.0308H8.18876C7.49196 18.0308 6.81884 17.8415 6.31015 17.3882C5.78883 16.9236 5.53329 16.2642 5.53329 15.5203C5.53329 14.2953 6.28398 13.338 7.28229 12.7247Z" fill="white"/>
<path fill-rule="evenodd" clip-rule="evenodd" d="M3.0377 13.4088C2.63194 13.6793 2.40921 14.0381 2.40921 14.5162C2.40921 14.9245 2.54189 15.204 2.7174 15.3795C2.89292 15.555 3.17246 15.6877 3.58074 15.6877C4.01209 15.6877 4.36176 16.0374 4.36176 16.4688C4.36176 16.9001 4.01209 17.2498 3.58074 17.2498C2.81749 17.2498 2.12076 16.9919 1.61288 16.4841C1.10499 15.9762 0.847168 15.2795 0.847168 14.5162C0.847168 13.4322 1.40546 12.6196 2.17123 12.1091C2.91386 11.614 3.85539 11.3921 4.75227 11.3921C5.18362 11.3921 5.53329 11.7418 5.53329 12.1731C5.53329 12.6045 5.18362 12.9542 4.75227 12.9542C4.08711 12.9542 3.4666 13.1228 3.0377 13.4088Z" fill="white"/>
<path fill-rule="evenodd" clip-rule="evenodd" d="M18.9632 13.4088C19.3689 13.6793 19.5917 14.0381 19.5917 14.5162C19.5917 14.9245 19.459 15.204 19.2835 15.3795C19.1079 15.555 18.8284 15.6877 18.4201 15.6877C17.9888 15.6877 17.6391 16.0374 17.6391 16.4688C17.6391 16.9001 17.9888 17.2498 18.4201 17.2498C19.1834 17.2498 19.8801 16.9919 20.388 16.4841C20.8959 15.9762 21.1537 15.2795 21.1537 14.5162C21.1537 13.4322 20.5954 12.6196 19.8296 12.1091C19.087 11.614 18.1455 11.3921 17.2486 11.3921C16.8173 11.3921 16.4676 11.7418 16.4676 12.1731C16.4676 12.6045 16.8173 12.9542 17.2486 12.9542C17.9138 12.9542 18.5343 13.1228 18.9632 13.4088Z" fill="white"/>
<path fill-rule="evenodd" clip-rule="evenodd" d="M9.04788 6.706C9.04788 7.78436 9.92207 8.65855 11.0004 8.65855C12.0788 8.65855 12.953 7.78436 12.953 6.706C12.953 5.62763 12.0788 4.75345 11.0004 4.75345C9.92207 4.75345 9.04788 5.62763 9.04788 6.706ZM11.0004 3.19141C9.05938 3.19141 7.48584 4.76494 7.48584 6.706C7.48584 8.64705 9.05938 10.2206 11.0004 10.2206C12.9415 10.2206 14.515 8.64705 14.515 6.706C14.515 4.76494 12.9415 3.19141 11.0004 3.19141Z" fill="white"/>
<path fill-rule="evenodd" clip-rule="evenodd" d="M5.53329 5.14396C4.6706 5.14396 3.97125 5.84331 3.97125 6.706C3.97125 7.56869 4.6706 8.26804 5.53329 8.26804C5.96464 8.26804 6.31431 8.61771 6.31431 9.04906C6.31431 9.4804 5.96464 9.83008 5.53329 9.83008C3.80791 9.83008 2.40921 8.43138 2.40921 6.706C2.40921 4.98062 3.80791 3.58192 5.53329 3.58192C5.96464 3.58192 6.31431 3.93159 6.31431 4.36294C6.31431 4.79428 5.96464 5.14396 5.53329 5.14396Z" fill="white"/>
<path fill-rule="evenodd" clip-rule="evenodd" d="M16.4676 5.14396C17.3303 5.14396 18.0296 5.84331 18.0296 6.706C18.0296 7.56869 17.3303 8.26804 16.4676 8.26804C16.0362 8.26804 15.6866 8.61771 15.6866 9.04906C15.6866 9.4804 16.0362 9.83008 16.4676 9.83008C18.193 9.83008 19.5917 8.43138 19.5917 6.706C19.5917 4.98062 18.193 3.58192 16.4676 3.58192C16.0362 3.58192 15.6866 3.93159 15.6866 4.36294C15.6866 4.79428 16.0362 5.14396 16.4676 5.14396Z" fill="white"/>
</svg>
