<svg width="22" height="22" viewBox="0 0 22 22" fill="none" xmlns="http://www.w3.org/2000/svg">
<path fill-rule="evenodd" clip-rule="evenodd" d="M2.04723 10.6102C2.04723 6.18964 6.17805 2.80078 11.0146 2.80078C15.8511 2.80078 19.9819 6.18965 19.9819 10.6102C19.9819 15.0307 15.8511 18.4195 11.0146 18.4195C9.94213 18.4195 8.91127 18.2556 7.95454 17.9536C6.82609 19.0068 5.18649 19.5131 3.18081 19.5919C2.36378 19.624 1.77407 18.7742 2.11618 18.0135C2.60151 16.9268 3.22859 15.681 3.30295 14.5944C2.50878 13.4379 2.04723 12.0731 2.04723 10.6102ZM11.0146 4.36282C6.80873 4.36282 3.60927 7.26737 3.60927 10.6102C3.60927 11.8106 4.01121 12.9367 4.71977 13.8909C4.81975 14.0256 4.87374 14.1888 4.87374 14.3566C4.87374 15.6326 4.36509 16.8365 3.84714 17.9791C5.45298 17.8085 6.50645 17.2943 7.14169 16.5467C7.35504 16.2957 7.703 16.2055 8.01143 16.3213C8.92695 16.6652 9.94253 16.8575 11.0146 16.8575C15.2204 16.8575 18.4199 13.953 18.4199 10.6102C18.4199 7.26737 15.2204 4.36282 11.0146 4.36282Z" fill="white"/>
</svg>
