<svg width="22" height="22" viewBox="0 0 22 22" fill="none" xmlns="http://www.w3.org/2000/svg">
<path d="M18.0293 15.6862C18.4607 15.6862 18.8103 16.0359 18.8103 16.4673C18.8103 16.8986 18.4607 17.2483 18.0293 17.2483H3.97096C3.53962 17.2483 3.18994 16.8986 3.18994 16.4673C3.18994 16.0359 3.53962 15.6862 3.97096 15.6862H18.0293ZM18.0293 10.2191C18.4607 10.2191 18.8103 10.5688 18.8103 11.0001C18.8103 11.4315 18.4607 11.7811 18.0293 11.7811H3.97096C3.53962 11.7811 3.18994 11.4315 3.18994 11.0001C3.18994 10.5688 3.53962 10.2191 3.97096 10.2191H18.0293ZM18.0293 4.75195C18.4607 4.75195 18.8103 5.10163 18.8103 5.53297C18.8103 5.96432 18.4607 6.31399 18.0293 6.31399H3.97096C3.53962 6.31399 3.18994 5.96432 3.18994 5.53297C3.18994 5.10163 3.53962 4.75195 3.97096 4.75195H18.0293Z" fill="white"/>
</svg>
