<svg width="23" height="23" viewBox="0 0 23 23" fill="none" xmlns="http://www.w3.org/2000/svg">
<path d="M18.9034 8.86904L11.9523 2.23037C11.4837 1.76175 10.7027 1.76175 10.156 2.23037L3.20487 8.86904C2.73626 9.33765 2.50195 9.96247 2.50195 10.5873V17.3041C2.50195 18.3975 3.36108 19.2566 4.4545 19.2566H8.77085C9.23946 19.2566 9.55187 18.9442 9.55187 18.4756V13.0084H12.6345V18.4756C12.6345 18.9442 12.9469 19.2566 13.4155 19.2566H17.7318C18.8253 19.2566 19.6844 18.3975 19.6844 17.3041V10.5873C19.6844 9.96247 19.372 9.33765 18.9034 8.86904ZM18.1224 17.3041C18.1224 17.5384 17.9662 17.6946 17.7318 17.6946H14.1965V15.8982L13.8267 12.2274C13.8267 11.7588 13.5143 11.4464 13.0457 11.4464H9.14063C8.67201 11.4464 8.35961 11.7588 8.35961 12.2274V15.3515V17.6946H4.4545C4.2202 17.6946 4.06399 17.5384 4.06399 17.3041V10.5873C4.06399 10.353 4.1421 10.1968 4.2983 10.0406L11.0932 3.5581L17.8881 10.0406C18.0443 10.1968 18.1224 10.4311 18.1224 10.5873V17.3041Z" fill="white"/>
<path d="M18.1224 17.3041C18.1224 17.5384 17.9662 17.6946 17.7318 17.6946H14.1965V15.8982L13.8267 12.2274C13.8267 11.7588 13.5143 11.4464 13.0457 11.4464H9.14063C8.67201 11.4464 8.35961 11.7588 8.35961 12.2274V15.3515V17.6946H4.4545C4.2202 17.6946 4.06399 17.5384 4.06399 17.3041V10.5873C4.06399 10.353 4.1421 10.1968 4.2983 10.0406L11.0932 3.5581L17.8881 10.0406C18.0443 10.1968 18.1224 10.4311 18.1224 10.5873V17.3041Z" fill="white"/>
</svg>
