<svg width="18" height="18" viewBox="0 0 18 18" fill="none" xmlns="http://www.w3.org/2000/svg">
<path d="M4.0678 8.85962C4.0678 9.47271 3.57155 9.97266 2.95846 9.97266C2.34537 9.97266 1.84912 9.47937 1.84912 8.86702L1.84912 8.85962C1.84912 8.24652 2.34537 7.75028 2.95846 7.75028C3.57155 7.75028 4.0678 8.24652 4.0678 8.85962ZM8.87492 7.75028C8.26183 7.75028 7.76558 8.24652 7.76558 8.85962L7.76558 8.86702C7.76558 9.47937 8.26183 9.97266 8.87492 9.97266C9.48801 9.97266 9.98426 9.47271 9.98426 8.85962C9.98426 8.24652 9.48801 7.75028 8.87492 7.75028ZM14.7914 7.75028C14.1783 7.75028 13.682 8.24652 13.682 8.85962L13.682 8.86702C13.682 9.47937 14.1783 9.97266 14.7914 9.97266C15.4045 9.97266 15.9007 9.47271 15.9007 8.85962C15.9007 8.24652 15.4045 7.75028 14.7914 7.75028Z" fill="white"/>
</svg>
